<svg xmlns="http://www.w3.org/2000/svg" viewBox="0 0 800 500" role="img" preserveAspectRatio="xMidYMid meet">
  <title>Схема блимаючого світлодіода</title>
  <rect x="0" y="0" width="800" height="500" fill="#fffaf0"/>
  <line x1="40" y1="40" x2="760" y2="40" stroke="#1a1a1a" stroke-opacity="0.25" stroke-width="1"/>
  <line x1="40" y1="460" x2="760" y2="460" stroke="#1a1a1a" stroke-opacity="0.25" stroke-width="1"/>

  <rect x="80" y="170" width="260" height="160" fill="#f7f1e3" stroke="#1a1a1a" stroke-opacity="0.9" stroke-width="2" rx="4"/>
  <text x="210" y="258" text-anchor="middle" font-family="Inter, sans-serif" font-size="20" font-weight="600" fill="#1a1a1a" fill-opacity="0.9">ARDUINO UNO</text>
  <circle cx="120" cy="210" r="3" fill="#1a1a1a" fill-opacity="0.85"/>
  <circle cx="120" cy="290" r="3" fill="#1a1a1a" fill-opacity="0.85"/>

  <line x1="340" y1="210" x2="400" y2="210" stroke="#1a1a1a" stroke-opacity="0.9" stroke-width="1.5"/>
  <text x="370" y="198" text-anchor="middle" font-family="Inter, sans-serif" font-size="14" fill="#1a1a1a" fill-opacity="0.9">D13</text>

  <polyline points="400,210 410,200 425,220 440,200 455,220 470,200 485,220 495,210" fill="none" stroke="#1a1a1a" stroke-opacity="0.9" stroke-width="1.5" stroke-linejoin="miter"/>
  <text x="447" y="180" text-anchor="middle" font-family="Inter, sans-serif" font-size="14" fill="#1a1a1a" fill-opacity="0.9">220 Ω</text>

  <line x1="495" y1="210" x2="555" y2="210" stroke="#1a1a1a" stroke-opacity="0.9" stroke-width="1.5"/>

  <polygon points="555,196 555,224 583,210" fill="#fffaf0" stroke="#1a1a1a" stroke-opacity="0.9" stroke-width="1.5" stroke-linejoin="miter"/>
  <line x1="583" y1="194" x2="583" y2="226" stroke="#1a1a1a" stroke-opacity="0.9" stroke-width="1.5"/>
  <line x1="591" y1="186" x2="599" y2="178" stroke="#1a1a1a" stroke-opacity="0.9" stroke-width="1.25"/>
  <polyline points="595,176 599,178 597,182" fill="none" stroke="#1a1a1a" stroke-opacity="0.9" stroke-width="1.25"/>
  <line x1="599" y1="194" x2="607" y2="186" stroke="#1a1a1a" stroke-opacity="0.9" stroke-width="1.25"/>
  <polyline points="603,184 607,186 605,190" fill="none" stroke="#1a1a1a" stroke-opacity="0.9" stroke-width="1.25"/>
  <text x="569" y="252" text-anchor="middle" font-family="Inter, sans-serif" font-size="13" fill="#1a1a1a" fill-opacity="0.9">LED</text>

  <line x1="583" y1="210" x2="640" y2="210" stroke="#1a1a1a" stroke-opacity="0.9" stroke-width="1.5"/>
  <line x1="640" y1="210" x2="640" y2="290" stroke="#1a1a1a" stroke-opacity="0.9" stroke-width="1.5"/>
  <line x1="640" y1="290" x2="120" y2="290" stroke="#1a1a1a" stroke-opacity="0.9" stroke-width="1.5"/>
  <text x="660" y="294" font-family="Inter, sans-serif" font-size="14" fill="#1a1a1a" fill-opacity="0.9">GND</text>
</svg>
