<svg xmlns="http://www.w3.org/2000/svg" viewBox="0 0 1000 600" role="img" preserveAspectRatio="xMidYMid meet">
  <title>Розкладка виводів Arduino UNO R3</title>
  <rect x="0" y="0" width="1000" height="600" fill="#fffaf0"/>

  <text x="500" y="42" text-anchor="middle" font-family="Source Serif 4, Georgia, serif" font-size="22" font-style="italic" fill="#1a1a1a" fill-opacity="0.9">Розкладка виводів</text>

  <rect x="200" y="220" width="600" height="200" fill="#f7f1e3" stroke="#1a1a1a" stroke-opacity="0.9" stroke-width="2" rx="6"/>

  <g stroke="#1a1a1a" stroke-opacity="0.85" stroke-width="1.25" fill="#fffaf0" id="dpins">
    <rect x="232" y="212" width="12" height="12"/><rect x="262" y="212" width="12" height="12"/>
    <rect x="292" y="212" width="12" height="12"/><rect x="322" y="212" width="12" height="12"/>
    <rect x="352" y="212" width="12" height="12"/><rect x="382" y="212" width="12" height="12"/>
    <rect x="412" y="212" width="12" height="12"/><rect x="442" y="212" width="12" height="12"/>
    <rect x="492" y="212" width="12" height="12"/><rect x="522" y="212" width="12" height="12"/>
    <rect x="552" y="212" width="12" height="12"/><rect x="582" y="212" width="12" height="12"/>
    <rect x="612" y="212" width="12" height="12"/><rect x="642" y="212" width="12" height="12"/>
  </g>

  <g stroke="#1a1a1a" stroke-opacity="0.85" stroke-width="1.25" fill="#fffaf0" id="apins">
    <rect x="262" y="416" width="12" height="12"/><rect x="292" y="416" width="12" height="12"/>
    <rect x="322" y="416" width="12" height="12"/><rect x="352" y="416" width="12" height="12"/>
    <rect x="382" y="416" width="12" height="12"/><rect x="412" y="416" width="12" height="12"/>
    <rect x="452" y="416" width="12" height="12"/><rect x="482" y="416" width="12" height="12"/>
    <rect x="512" y="416" width="12" height="12"/><rect x="552" y="416" width="12" height="12"/>
    <rect x="592" y="416" width="12" height="12"/>
  </g>

  <rect x="180" y="270" width="50" height="40" fill="#fffaf0" stroke="#1a1a1a" stroke-opacity="0.9" stroke-width="1.5" rx="3"/>
  <circle cx="210" cy="340" r="14" fill="#fffaf0" stroke="#1a1a1a" stroke-opacity="0.9" stroke-width="1.5"/>
  <rect x="450" y="290" width="100" height="100" fill="#fffaf0" stroke="#1a1a1a" stroke-opacity="0.9" stroke-width="1.5"/>
  <path d="M 490 290 a 6 6 0 0 0 16 0" fill="none" stroke="#1a1a1a" stroke-opacity="0.9" stroke-width="1.25"/>
  <ellipse cx="610" cy="320" rx="22" ry="12" fill="#fffaf0" stroke="#1a1a1a" stroke-opacity="0.9" stroke-width="1.25"/>
  <circle cx="690" cy="320" r="12" fill="#fffaf0" stroke="#1a1a1a" stroke-opacity="0.9" stroke-width="1.5"/>

  <g stroke="#1a1a1a" stroke-opacity="0.6" stroke-width="1" fill="none">
    <line x1="238" y1="212" x2="238" y2="170"/>
    <line x1="268" y1="212" x2="268" y2="158"/>
    <line x1="298" y1="212" x2="298" y2="146"/>
    <line x1="328" y1="212" x2="328" y2="134"/>
    <line x1="358" y1="212" x2="358" y2="122"/>
    <line x1="388" y1="212" x2="388" y2="110"/>
    <line x1="418" y1="212" x2="418" y2="98"/>
    <line x1="448" y1="212" x2="448" y2="98"/>
    <line x1="498" y1="212" x2="498" y2="110"/>
    <line x1="528" y1="212" x2="528" y2="122"/>
    <line x1="558" y1="212" x2="558" y2="134"/>
    <line x1="588" y1="212" x2="588" y2="146"/>
    <line x1="618" y1="212" x2="618" y2="158"/>
    <line x1="648" y1="212" x2="648" y2="170"/>
  </g>
  <g font-family="Inter, sans-serif" font-size="12" fill="#1a1a1a" fill-opacity="0.9" text-anchor="middle">
    <text x="238" y="162">D0</text><text x="268" y="150">D1</text>
    <text x="298" y="138">D2</text><text x="328" y="126">D3</text>
    <text x="358" y="114">D4</text><text x="388" y="102">D5</text>
    <text x="418" y="90">D6</text><text x="448" y="90">D7</text>
    <text x="498" y="102">D8</text><text x="528" y="114">D9</text>
    <text x="558" y="126">D10</text><text x="588" y="138">D11</text>
    <text x="618" y="150">D12</text><text x="648" y="162">D13</text>
  </g>

  <g stroke="#1a1a1a" stroke-opacity="0.6" stroke-width="1" fill="none">
    <line x1="268" y1="428" x2="268" y2="470"/>
    <line x1="298" y1="428" x2="298" y2="482"/>
    <line x1="328" y1="428" x2="328" y2="494"/>
    <line x1="358" y1="428" x2="358" y2="506"/>
    <line x1="388" y1="428" x2="388" y2="518"/>
    <line x1="418" y1="428" x2="418" y2="530"/>
    <line x1="458" y1="428" x2="458" y2="494"/>
    <line x1="488" y1="428" x2="488" y2="506"/>
    <line x1="518" y1="428" x2="518" y2="518"/>
    <line x1="558" y1="428" x2="558" y2="530"/>
    <line x1="598" y1="428" x2="598" y2="542"/>
  </g>
  <g font-family="Inter, sans-serif" font-size="12" fill="#1a1a1a" fill-opacity="0.9" text-anchor="middle">
    <text x="268" y="484">A0</text><text x="298" y="496">A1</text>
    <text x="328" y="508">A2</text><text x="358" y="520">A3</text>
    <text x="388" y="532">A4</text><text x="418" y="544">A5</text>
    <text x="458" y="508">5V</text><text x="488" y="520">GND</text>
    <text x="518" y="532">3V3</text><text x="558" y="544">RESET</text>
    <text x="598" y="556">Vin</text>
  </g>
</svg>
