<svg xmlns="http://www.w3.org/2000/svg" viewBox="0 0 800 450" role="img" preserveAspectRatio="xMidYMid meet">
  <title>Arduino UNO R3 — оглядове креслення плати</title>
  <rect x="0" y="0" width="800" height="450" fill="#fffaf0"/>

  <rect x="80" y="100" width="640" height="250" fill="#f7f1e3" stroke="#1a1a1a" stroke-opacity="0.9" stroke-width="2" rx="6"/>

  <g stroke="#1a1a1a" stroke-opacity="0.85" stroke-width="1.25" fill="#fffaf0">
    <rect x="170" y="92" width="14" height="14"/><rect x="190" y="92" width="14" height="14"/>
    <rect x="210" y="92" width="14" height="14"/><rect x="230" y="92" width="14" height="14"/>
    <rect x="250" y="92" width="14" height="14"/><rect x="270" y="92" width="14" height="14"/>
    <rect x="290" y="92" width="14" height="14"/><rect x="310" y="92" width="14" height="14"/>
    <rect x="340" y="92" width="14" height="14"/><rect x="360" y="92" width="14" height="14"/>
    <rect x="380" y="92" width="14" height="14"/><rect x="400" y="92" width="14" height="14"/>
    <rect x="420" y="92" width="14" height="14"/><rect x="440" y="92" width="14" height="14"/>
  </g>

  <g stroke="#1a1a1a" stroke-opacity="0.85" stroke-width="1.25" fill="#fffaf0">
    <rect x="220" y="344" width="14" height="14"/><rect x="240" y="344" width="14" height="14"/>
    <rect x="260" y="344" width="14" height="14"/><rect x="280" y="344" width="14" height="14"/>
    <rect x="300" y="344" width="14" height="14"/><rect x="320" y="344" width="14" height="14"/>
    <rect x="350" y="344" width="14" height="14"/><rect x="370" y="344" width="14" height="14"/>
    <rect x="390" y="344" width="14" height="14"/><rect x="410" y="344" width="14" height="14"/>
    <rect x="430" y="344" width="14" height="14"/>
  </g>

  <rect x="60" y="140" width="60" height="46" fill="#fffaf0" stroke="#1a1a1a" stroke-opacity="0.9" stroke-width="1.5" rx="4"/>
  <line x1="70" y1="150" x2="70" y2="176" stroke="#1a1a1a" stroke-opacity="0.6" stroke-width="1"/>
  <line x1="78" y1="150" x2="78" y2="176" stroke="#1a1a1a" stroke-opacity="0.6" stroke-width="1"/>

  <circle cx="100" cy="220" r="18" fill="#fffaf0" stroke="#1a1a1a" stroke-opacity="0.9" stroke-width="1.5"/>
  <circle cx="100" cy="220" r="7" fill="none" stroke="#1a1a1a" stroke-opacity="0.7" stroke-width="1.25"/>

  <rect x="380" y="180" width="120" height="120" fill="#fffaf0" stroke="#1a1a1a" stroke-opacity="0.9" stroke-width="1.5"/>
  <path d="M 430 180 a 8 8 0 0 0 20 0" fill="none" stroke="#1a1a1a" stroke-opacity="0.9" stroke-width="1.25"/>
  <text x="440" y="248" text-anchor="middle" font-family="Inter, sans-serif" font-size="12" fill="#1a1a1a" fill-opacity="0.85">ATmega328P</text>

  <ellipse cx="560" cy="220" rx="26" ry="14" fill="#fffaf0" stroke="#1a1a1a" stroke-opacity="0.9" stroke-width="1.25"/>
  <text x="560" y="224" text-anchor="middle" font-family="Inter, sans-serif" font-size="10" fill="#1a1a1a" fill-opacity="0.85">16 MHz</text>

  <circle cx="640" cy="220" r="14" fill="#fffaf0" stroke="#1a1a1a" stroke-opacity="0.9" stroke-width="1.5"/>
  <circle cx="640" cy="220" r="6" fill="none" stroke="#1a1a1a" stroke-opacity="0.7" stroke-width="1"/>

  <text x="700" y="338" text-anchor="end" font-family="Source Serif 4, Georgia, serif" font-size="16" font-style="italic" fill="#1a1a1a" fill-opacity="0.9">Arduino UNO R3</text>
</svg>
